<svg width="1280" height="1280" viewBox="0 0 1280 1280" fill="none" xmlns="http://www.w3.org/2000/svg">
  <defs>
    <linearGradient id="bg" x1="116" y1="98" x2="1134" y2="1184" gradientUnits="userSpaceOnUse">
      <stop stop-color="#5F2497"/>
      <stop offset="1" stop-color="#3B1465"/>
    </linearGradient>
    <linearGradient id="gold" x1="277" y1="1049" x2="1132" y2="566" gradientUnits="userSpaceOnUse">
      <stop stop-color="#F6B01A"/>
      <stop offset="1" stop-color="#FFD966"/>
    </linearGradient>
    <linearGradient id="lavender" x1="699" y1="541" x2="1014" y2="1016" gradientUnits="userSpaceOnUse">
      <stop stop-color="#C397FF"/>
      <stop offset="1" stop-color="#8E5BCE"/>
    </linearGradient>
  </defs>
  <rect x="0" y="0" width="1280" height="1280" rx="88" fill="url(#bg)"/>
  <path d="M304 269H574C669.546 269 747 346.454 747 442V453C747 548.546 669.546 626 574 626H412V1028H304V269ZM412 365V530H560C611.915 530 654 487.915 654 436C654 384.085 611.915 342 560 342H412V365Z" fill="white"/>
  <rect x="504" y="488" width="570" height="555" rx="52" stroke="white" stroke-width="24"/>
  <path d="M504 658H1074" stroke="white" stroke-width="18"/>
  <path d="M504 792H1074" stroke="white" stroke-width="18"/>
  <path d="M504 910H1074" stroke="white" stroke-width="18"/>
  <path d="M705 488V1043" stroke="white" stroke-width="18"/>
  <path d="M875 488V1043" stroke="white" stroke-width="18"/>
  <rect x="707" y="541" width="168" height="118" fill="url(#lavender)" fill-opacity="0.55"/>
  <rect x="886" y="541" width="142" height="118" fill="url(#lavender)" fill-opacity="0.75"/>
  <rect x="909" y="848" width="118" height="142" rx="4" fill="url(#gold)"/>
  <path d="M936 922L973 958L1038 891" stroke="white" stroke-width="18" stroke-linecap="round" stroke-linejoin="round"/>
  <path d="M174 1053C316 869 507 757 669 709L604 803L1191 544C1007 742 793 877 431 978L514 868L174 1053Z" fill="url(#gold)"/>
</svg>
